<svg width="61" height="61" viewBox="0 0 61 61" fill="none" xmlns="http://www.w3.org/2000/svg">
<rect width="61" height="61" rx="4" fill="url(#paint0_linear_1_27)"/>
<path fill-rule="evenodd" clip-rule="evenodd" d="M23.625 10C23.9782 10.0001 24.3228 10.1085 24.6119 10.3102C24.901 10.512 25.1205 10.7974 25.2406 11.1276L37.375 44.2913L42.6344 29.9133C42.7556 29.5844 42.9756 29.3005 43.2646 29.1C43.5536 28.8995 43.8976 28.7922 44.25 28.7926H56.2812C56.7371 28.7926 57.1743 28.9726 57.4966 29.293C57.8189 29.6134 58 30.0479 58 30.501C58 30.9541 57.8189 31.3886 57.4966 31.709C57.1743 32.0294 56.7371 32.2094 56.2812 32.2094H45.4531L38.9906 49.8745C38.8702 50.2043 38.6505 50.4892 38.3615 50.6906C38.0724 50.892 37.728 51 37.375 51C37.022 51 36.6776 50.892 36.3885 50.6906C36.0995 50.4892 35.8798 50.2043 35.7594 49.8745L23.625 16.7107L18.3656 31.0853C18.245 31.4148 18.0252 31.6995 17.7362 31.9006C17.4471 32.1017 17.1028 32.2095 16.75 32.2094H4.71875C4.26291 32.2094 3.82574 32.0294 3.50341 31.709C3.18108 31.3886 3 30.9541 3 30.501C3 30.0479 3.18108 29.6134 3.50341 29.293C3.82574 28.9726 4.26291 28.7926 4.71875 28.7926H15.5469L22.0094 11.1276C22.1295 10.7974 22.349 10.512 22.6381 10.3102C22.9272 10.1085 23.2718 10.0001 23.625 10Z" fill="#12182F"/>
<defs>
<linearGradient id="paint0_linear_1_27" x1="52.7214" y1="9.35424" x2="17.4558" y2="42.6047" gradientUnits="userSpaceOnUse">
<stop stop-color="#FBCD66"/>
<stop offset="1" stop-color="#ED3861"/>
</linearGradient>
</defs>
</svg>
