<svg viewBox="0 0 1015 1045.437" xmlns="http://www.w3.org/2000/svg"><path d="M378.307 853.642h-86.122v-67.635h86.122zm171.794 0h-85.67v-67.635h85.67zm172.246 0h-86.122v-67.635h86.122zM0 570.926h306.208l42.836 42.836H707.06l45.09-42.836h262.426v33.863c-.282 232.452-188.646 420.815-421.07 421.097h-421.26V992.07c-.078-76.42-62.008-138.35-138.42-138.428H0zm278.162 67.636H67.636v150.24c86.876 15.004 154.446 82.574 169.273 168.22l.175 1.23h356.213c183.045-.642 333.374-139.86 351.58-318.185l.124-1.505H779.115l-45.09 42.836H320.998zm262.92 9.018H473.45V1.887h67.635zM473.45 11.356h33.818c208.656.256 377.77 169.194 378.307 377.76v71.79l-412.125 101.95zm344.49 396.48v-18.623c-.454-159.394-120.7-290.564-275.423-308.24l-1.432-.132V476.33zm-276.855-157.05H237.445l59.79-119.535L237.58 11.357h303.504zM346.925 183.15h126.523V78.99h-126.66l26.018 52.35z"/></svg>