<svg width="61" height="61" viewBox="0 0 61 61" fill="none" xmlns="http://www.w3.org/2000/svg">
<rect width="61" height="61" rx="4" fill="#12182F"/>
<g clip-path="url(#clip0_1_15)">
<path d="M35.8436 24.9886C37.6705 26.8186 41.1201 26.3215 43.554 23.8845C45.9879 21.4476 46.482 17.9919 44.6581 16.165C42.8311 14.335 39.3816 14.8291 36.9477 17.266C34.5138 19.706 34.0197 23.1617 35.8436 24.9886Z" fill="#FDFDFE"/>
<path d="M54.3237 16.2016C53.2166 20.8803 50.255 27.2609 43.2217 35.1665L42.4897 42.5109C42.2947 44.2706 41.5075 45.9117 40.2571 47.1652L32.992 54.4425C32.7613 54.6757 32.4628 54.8301 32.1391 54.8834C31.8154 54.9368 31.4832 54.8864 31.1898 54.7396C30.8965 54.5927 30.657 54.3569 30.5058 54.0658C30.3545 53.7747 30.2992 53.4432 30.3477 53.1188L31.1712 47.3268C31.2932 46.4728 31.1315 45.5182 30.7716 44.411C30.5435 43.7339 30.2902 43.0655 30.0122 42.4072L29.7621 41.7911C27.2763 41.1902 24.9492 39.772 23.0795 37.8962C21.2068 36.0205 19.7886 33.6903 19.1908 31.2015L18.5716 30.9483C17.9152 30.6719 17.2488 30.4196 16.5739 30.1919C15.4667 29.829 14.5151 29.6673 13.6611 29.7893L7.87832 30.6128C7.55413 30.6605 7.22316 30.6046 6.93264 30.453C6.64211 30.3015 6.40686 30.062 6.26046 29.7689C6.11405 29.4757 6.06396 29.1438 6.11733 28.8205C6.1707 28.4972 6.32481 28.199 6.55767 27.9685L13.8228 20.6912C15.0733 19.4407 16.7111 18.6477 18.471 18.4525H18.4893L25.8093 17.7266C33.5654 10.8275 39.9155 7.87509 44.6003 6.73439C47.3148 6.07254 49.4498 6.02679 50.9443 6.16099C51.6885 6.23114 52.2711 6.34399 52.6828 6.44464C52.8872 6.49649 53.0488 6.54529 53.1708 6.58189C53.732 6.76489 54.0218 6.97839 54.2414 7.48164L54.3298 7.70429C54.567 8.41823 54.7276 9.1554 54.8087 9.90334C54.9764 11.3826 54.9642 13.4962 54.3237 16.2016ZM39.5983 39.0003L39.7203 38.8783L39.394 42.1754C39.2746 43.2287 38.8015 44.2104 38.052 44.96L34.0931 48.925L34.2578 47.766C34.4774 46.2227 34.1541 44.7374 33.7332 43.4411C33.5793 42.9791 33.4125 42.5214 33.233 42.0686C35.4839 41.8704 37.6921 40.9096 39.5983 39.0003ZM21.9754 21.35C20.0692 23.2593 19.1084 25.4705 18.9132 27.7245C18.4605 27.5449 18.0028 27.3781 17.5407 27.2243C16.2475 26.8034 14.7652 26.4801 13.2219 26.6997L12.0629 26.8644L16.0279 22.8994C16.7752 22.1491 17.7542 21.6763 18.8034 21.5574L22.0974 21.231L21.9754 21.35ZM50.6637 9.26894C49.5047 9.16524 47.7144 9.18659 45.3384 9.76609C40.5865 10.9251 33.3916 14.3289 24.1806 23.5551C22.2896 25.4461 21.7436 27.6421 22.0852 29.8107C22.4116 31.8725 23.5584 33.9648 25.2816 35.6911C27.0018 37.4143 29.0941 38.5611 31.1498 38.8905C33.3153 39.2321 35.5083 38.6862 37.3962 36.7921C46.7872 27.389 50.1818 20.1879 51.292 15.4818C51.8502 13.1302 51.841 11.3795 51.7129 10.2571C51.6817 9.96729 51.6359 9.67921 51.5757 9.39399C51.2729 9.33732 50.9675 9.29559 50.6607 9.26894H50.6637Z" fill="#FDFDFE"/>
<path d="M27.4775 43.1239C25.4494 42.0294 23.5951 40.6397 21.9753 39.0003C20.2387 37.2814 18.7861 35.2975 17.6717 33.123C14.3106 36.1486 11.6785 48.5377 12.0628 48.922C12.444 49.3063 24.0676 46.1892 27.4775 43.1209V43.1239Z" fill="#FDFDFE"/>
</g>
<defs>
<clipPath id="clip0_1_15">
<rect width="48.8" height="48.8" fill="white" transform="translate(6.10001 6.1)"/>
</clipPath>
</defs>
</svg>
