<svg id="visual" viewBox="0 0 960 300" width="960" height="300" xmlns="http://www.w3.org/2000/svg" xmlns:xlink="http://www.w3.org/1999/xlink" version="1.1"><path d="M0 166L22.8 167.5C45.7 169 91.3 172 137 173.8C182.7 175.7 228.3 176.3 274 171.7C319.7 167 365.3 157 411.2 152.8C457 148.7 503 150.3 548.8 150.3C594.7 150.3 640.3 148.7 686 143.2C731.7 137.7 777.3 128.3 823 130C868.7 131.7 914.3 144.3 937.2 150.7L960 157L960 0L937.2 0C914.3 0 868.7 0 823 0C777.3 0 731.7 0 686 0C640.3 0 594.7 0 548.8 0C503 0 457 0 411.2 0C365.3 0 319.7 0 274 0C228.3 0 182.7 0 137 0C91.3 0 45.7 0 22.8 0L0 0Z" fill="#ebeeff"></path><path d="M0 91L22.8 97.5C45.7 104 91.3 117 137 122.3C182.7 127.7 228.3 125.3 274 121.7C319.7 118 365.3 113 411.2 114.8C457 116.7 503 125.3 548.8 128C594.7 130.7 640.3 127.3 686 123.2C731.7 119 777.3 114 823 113.3C868.7 112.7 914.3 116.3 937.2 118.2L960 120L960 0L937.2 0C914.3 0 868.7 0 823 0C777.3 0 731.7 0 686 0C640.3 0 594.7 0 548.8 0C503 0 457 0 411.2 0C365.3 0 319.7 0 274 0C228.3 0 182.7 0 137 0C91.3 0 45.7 0 22.8 0L0 0Z" fill="#aeb1c6"></path><path d="M0 54L22.8 57.5C45.7 61 91.3 68 137 71.2C182.7 74.3 228.3 73.7 274 76.8C319.7 80 365.3 87 411.2 84.3C457 81.7 503 69.3 548.8 69.2C594.7 69 640.3 81 686 82.8C731.7 84.7 777.3 76.3 823 72.2C868.7 68 914.3 68 937.2 68L960 68L960 0L937.2 0C914.3 0 868.7 0 823 0C777.3 0 731.7 0 686 0C640.3 0 594.7 0 548.8 0C503 0 457 0 411.2 0C365.3 0 319.7 0 274 0C228.3 0 182.7 0 137 0C91.3 0 45.7 0 22.8 0L0 0Z" fill="#757890"></path><path d="M0 48L22.8 43.5C45.7 39 91.3 30 137 26C182.7 22 228.3 23 274 27.2C319.7 31.3 365.3 38.7 411.2 42.8C457 47 503 48 548.8 48.2C594.7 48.3 640.3 47.7 686 46.5C731.7 45.3 777.3 43.7 823 46.2C868.7 48.7 914.3 55.3 937.2 58.7L960 62L960 0L937.2 0C914.3 0 868.7 0 823 0C777.3 0 731.7 0 686 0C640.3 0 594.7 0 548.8 0C503 0 457 0 411.2 0C365.3 0 319.7 0 274 0C228.3 0 182.7 0 137 0C91.3 0 45.7 0 22.8 0L0 0Z" fill="#3f435d"></path></svg>