<svg id="visual" viewBox="0 0 1920 1080" width="1920" height="1080" xmlns="http://www.w3.org/2000/svg" xmlns:xlink="http://www.w3.org/1999/xlink" version="1.1"><path d="M0 334L53.3 334.8C106.7 335.7 213.3 337.3 320 334.2C426.7 331 533.3 323 640 310.3C746.7 297.7 853.3 280.3 960 275C1066.7 269.7 1173.3 276.3 1280 282C1386.7 287.7 1493.3 292.3 1600 288.2C1706.7 284 1813.3 271 1866.7 264.5L1920 258L1920 0L1866.7 0C1813.3 0 1706.7 0 1600 0C1493.3 0 1386.7 0 1280 0C1173.3 0 1066.7 0 960 0C853.3 0 746.7 0 640 0C533.3 0 426.7 0 320 0C213.3 0 106.7 0 53.3 0L0 0Z" fill="#ebeeff"></path><path d="M0 227L53.3 234.3C106.7 241.7 213.3 256.3 320 260.8C426.7 265.3 533.3 259.7 640 249.3C746.7 239 853.3 224 960 222.8C1066.7 221.7 1173.3 234.3 1280 233.3C1386.7 232.3 1493.3 217.7 1600 221.3C1706.7 225 1813.3 247 1866.7 258L1920 269L1920 0L1866.7 0C1813.3 0 1706.7 0 1600 0C1493.3 0 1386.7 0 1280 0C1173.3 0 1066.7 0 960 0C853.3 0 746.7 0 640 0C533.3 0 426.7 0 320 0C213.3 0 106.7 0 53.3 0L0 0Z" fill="#c6c9dd"></path><path d="M0 215L53.3 207.3C106.7 199.7 213.3 184.3 320 188.2C426.7 192 533.3 215 640 224.5C746.7 234 853.3 230 960 226C1066.7 222 1173.3 218 1280 220C1386.7 222 1493.3 230 1600 226.5C1706.7 223 1813.3 208 1866.7 200.5L1920 193L1920 0L1866.7 0C1813.3 0 1706.7 0 1600 0C1493.3 0 1386.7 0 1280 0C1173.3 0 1066.7 0 960 0C853.3 0 746.7 0 640 0C533.3 0 426.7 0 320 0C213.3 0 106.7 0 53.3 0L0 0Z" fill="#a2a5bb"></path><path d="M0 160L53.3 160.8C106.7 161.7 213.3 163.3 320 159.7C426.7 156 533.3 147 640 149.8C746.7 152.7 853.3 167.3 960 164.8C1066.7 162.3 1173.3 142.7 1280 140.5C1386.7 138.3 1493.3 153.7 1600 160.3C1706.7 167 1813.3 165 1866.7 164L1920 163L1920 0L1866.7 0C1813.3 0 1706.7 0 1600 0C1493.3 0 1386.7 0 1280 0C1173.3 0 1066.7 0 960 0C853.3 0 746.7 0 640 0C533.3 0 426.7 0 320 0C213.3 0 106.7 0 53.3 0L0 0Z" fill="#80839b"></path><path d="M0 137L53.3 130.2C106.7 123.3 213.3 109.7 320 106.2C426.7 102.7 533.3 109.3 640 109C746.7 108.7 853.3 101.3 960 105.5C1066.7 109.7 1173.3 125.3 1280 132.2C1386.7 139 1493.3 137 1600 134.3C1706.7 131.7 1813.3 128.3 1866.7 126.7L1920 125L1920 0L1866.7 0C1813.3 0 1706.7 0 1600 0C1493.3 0 1386.7 0 1280 0C1173.3 0 1066.7 0 960 0C853.3 0 746.7 0 640 0C533.3 0 426.7 0 320 0C213.3 0 106.7 0 53.3 0L0 0Z" fill="#5f627b"></path><path d="M0 56L53.3 58.2C106.7 60.3 213.3 64.7 320 65.2C426.7 65.7 533.3 62.3 640 65C746.7 67.7 853.3 76.3 960 74.8C1066.7 73.3 1173.3 61.7 1280 55.2C1386.7 48.7 1493.3 47.3 1600 48C1706.7 48.7 1813.3 51.3 1866.7 52.7L1920 54L1920 0L1866.7 0C1813.3 0 1706.7 0 1600 0C1493.3 0 1386.7 0 1280 0C1173.3 0 1066.7 0 960 0C853.3 0 746.7 0 640 0C533.3 0 426.7 0 320 0C213.3 0 106.7 0 53.3 0L0 0Z" fill="#3f435d"></path></svg>