<svg id="visual" viewBox="0 0 960 540" width="960" height="540" xmlns="http://www.w3.org/2000/svg" xmlns:xlink="http://www.w3.org/1999/xlink" version="1.1"><path d="M0 154L22.8 160.3C45.7 166.7 91.3 179.3 137 176.7C182.7 174 228.3 156 274 150.3C319.7 144.7 365.3 151.3 411.2 155.7C457 160 503 162 548.8 167.3C594.7 172.7 640.3 181.3 686 173.7C731.7 166 777.3 142 823 132.3C868.7 122.7 914.3 127.3 937.2 129.7L960 132L960 0L937.2 0C914.3 0 868.7 0 823 0C777.3 0 731.7 0 686 0C640.3 0 594.7 0 548.8 0C503 0 457 0 411.2 0C365.3 0 319.7 0 274 0C228.3 0 182.7 0 137 0C91.3 0 45.7 0 22.8 0L0 0Z" fill="#fa7268"></path><path d="M0 140L22.8 142C45.7 144 91.3 148 137 137.3C182.7 126.7 228.3 101.3 274 94.7C319.7 88 365.3 100 411.2 106C457 112 503 112 548.8 118.3C594.7 124.7 640.3 137.3 686 134.7C731.7 132 777.3 114 823 104C868.7 94 914.3 92 937.2 91L960 90L960 0L937.2 0C914.3 0 868.7 0 823 0C777.3 0 731.7 0 686 0C640.3 0 594.7 0 548.8 0C503 0 457 0 411.2 0C365.3 0 319.7 0 274 0C228.3 0 182.7 0 137 0C91.3 0 45.7 0 22.8 0L0 0Z" fill="#e34c67"></path><path d="M0 51L22.8 58.7C45.7 66.3 91.3 81.7 137 87.3C182.7 93 228.3 89 274 85.7C319.7 82.3 365.3 79.7 411.2 76.2C457 72.7 503 68.3 548.8 62.7C594.7 57 640.3 50 686 54.5C731.7 59 777.3 75 823 79.2C868.7 83.3 914.3 75.7 937.2 71.8L960 68L960 0L937.2 0C914.3 0 868.7 0 823 0C777.3 0 731.7 0 686 0C640.3 0 594.7 0 548.8 0C503 0 457 0 411.2 0C365.3 0 319.7 0 274 0C228.3 0 182.7 0 137 0C91.3 0 45.7 0 22.8 0L0 0Z" fill="#c62368"></path></svg>